# xmcd
#
# Track frame offsets:
#	150
#	14855
#	27210
#	40302
#	53592
#	66890
#	84737
#	102487
#	115672
#	128257
#	140500
#	153937
#	169560
#	181937
#	194542
#	206700
#	221455
#	238192
#	250972
#	264332
#
# Disc length: 3720
#
# Revision: 5
# Processed by: cddbd v1.5.1PL0 Copyright (c) Steve Scherf et al.
# Submitted via: EasyCDDAExtractor 7.0.4.1
# Normalized: r4:DSETVAR1
#
DISCID=190e8614
DTITLE=Various Artist - Country Roads
DYEAR=1997
DGENRE=Country
TTITLE0=Bellamy Brothers - Let Your Love Flow
TTITLE1=Nilsson - Everybody's Talkin
TTITLE2=Dr. Hook - When Your In Love With A Beautiful Woman
TTITLE3=Glen Campbell - Southern Nights
TTITLE4=Desert Rose Band - She Don't Love Nobody
TTITLE5=Billy Swan - I Can Help
TTITLE6=Nanci Griffith - Lone Star State Of Mind
TTITLE7=Hal Ketchum - Small Town Saturday Night
TTITLE8=Ray Stevens - Misty
TTITLE9=Bob Woodruff - Out Of The Blue
TTITLE10=Kenny Rogers - Ruby Don't Take Your Love To Town
TTITLE11=Tanya Tucker - Down To My Last Teardrop
TTITLE12=Dolly Parton - 9 To 5
TTITLE13=Patsy Cline - I Fall To Pieces
TTITLE14=Waylon Jennings - Mason Dixon Line
TTITLE15=Rodney Crowell - I Couldn't Leave You If I Tried
TTITLE16=Gretchen Peters - Waiting For The Light To Turn Green
TTITLE17=Billie Jo Spears - '57 Chevrolet
TTITLE18=Tim McGraw - 40 Days and 40 Nights
TTITLE19=Olivia Newton-John - Take Me Home Country Roads
EXTD=ID3G: 2
EXTT0=
EXTT1=
EXTT2=
EXTT3=
EXTT4=
EXTT5=
EXTT6=
EXTT7=
EXTT8=
EXTT9=
EXTT10=
EXTT11=
EXTT12=
EXTT13=
EXTT14=
EXTT15=
EXTT16=
EXTT17=
EXTT18=
EXTT19=Original  song by John Denver
PLAYORDER=
